<svg width="22" height="26" viewBox="0 0 22 26" fill="none" xmlns="http://www.w3.org/2000/svg">
<path d="M14.6667 0H7.33333V2.44444H14.6667V0ZM9.77778 15.8889H12.2222V8.55556H9.77778V15.8889ZM19.5922 7.81L21.3278 6.07444C20.8022 5.45111 20.2278 4.86444 19.6044 4.35111L17.8689 6.08667C15.9744 4.57111 13.5911 3.66667 11 3.66667C4.92556 3.66667 0 8.59222 0 14.6667C0 20.7411 4.91333 25.6667 11 25.6667C17.0867 25.6667 22 20.7411 22 14.6667C22 12.0756 21.0956 9.69222 19.5922 7.81ZM11 23.2222C6.27 23.2222 2.44444 19.3967 2.44444 14.6667C2.44444 9.93667 6.27 6.11111 11 6.11111C15.73 6.11111 19.5556 9.93667 19.5556 14.6667C19.5556 19.3967 15.73 23.2222 11 23.2222Z" fill="black"/>
</svg>
