<svg width="70" height="70" viewBox="0 0 70 70" fill="none" xmlns="http://www.w3.org/2000/svg">
<path d="M50.9061 38.5C53.5301 38.5 55.8393 37.065 57.0288 34.895L69.5542 12.18C70.8487 9.87 69.1693 7 66.5103 7H14.7295L11.4408 0H0V7H6.9974L19.5927 33.565L14.8695 42.105C12.3154 46.795 15.6742 52.5 20.9922 52.5H62.9766V45.5H20.9922L24.8408 38.5H50.9061ZM18.0533 14H60.5625L50.9061 31.5H26.3452L18.0533 14ZM20.9922 56C17.1436 56 14.0298 59.15 14.0298 63C14.0298 66.85 17.1436 70 20.9922 70C24.8408 70 27.9896 66.85 27.9896 63C27.9896 59.15 24.8408 56 20.9922 56ZM55.9792 56C52.1306 56 49.0168 59.15 49.0168 63C49.0168 66.85 52.1306 70 55.9792 70C59.8278 70 62.9766 66.85 62.9766 63C62.9766 59.15 59.8278 56 55.9792 56Z" fill="#EA9A00"/>
</svg>
